<svg width="24" height="24" viewBox="0 0 40 40" fill="none" xmlns="http://www.w3.org/2000/svg">
<path d="M0 23.6364V16.3636H40V23.6364L33.6364 30H6.36364L0 23.6364Z" fill="#2859C5"/>
<path fill-rule="evenodd" clip-rule="evenodd" d="M3.63636 33.6364C3.63636 34.3597 3.9237 35.0534 4.43516 35.5648C4.94663 36.0763 5.64032 36.3636 6.36364 36.3636C7.08695 36.3636 7.78065 36.0763 8.29211 35.5648C8.80357 35.0534 9.09091 34.3597 9.09091 33.6364H12.7273C12.7273 34.3597 13.0146 35.0534 13.5261 35.5648C14.0375 36.0763 14.7312 36.3636 15.4545 36.3636C16.1779 36.3636 16.8716 36.0763 17.383 35.5648C17.8945 35.0534 18.1818 34.3597 18.1818 33.6364H21.8182C21.8182 34.3597 22.1055 35.0534 22.617 35.5648C23.1284 36.0763 23.8221 36.3636 24.5455 36.3636C25.2688 36.3636 25.9625 36.0763 26.4739 35.5648C26.9854 35.0534 27.2727 34.3597 27.2727 33.6364H30.9091C30.9091 34.3597 31.1964 35.0534 31.7079 35.5648C32.2194 36.0763 32.913 36.3636 33.6364 36.3636C34.3597 36.3636 35.0534 36.0763 35.5648 35.5648C36.0763 35.0534 36.3636 34.3597 36.3636 33.6364H40V40H0V33.6364H3.63636Z" fill="#8FBFFA"/>
<path d="M34.5454 16.3636H5.45453L8.1818 5.45455H31.8182L34.5454 16.3636Z" fill="#8FBFFA"/>
<path d="M23.6363 0H16.3636V5.45455H23.6363V0Z" fill="#2859C5"/>
</svg>
